<svg width="137" height="60" viewBox="0 0 137 60" fill="none" xmlns="http://www.w3.org/2000/svg">
<g clip-path="url(#clip0_127_2)">
<rect width="137" height="60" fill="white"/>
<g clip-path="url(#clip1_127_2)">
<path d="M33.426 2.27752C34.7693 2.27752 35.937 2.47386 36.929 2.86652C37.921 3.23852 38.8923 3.81719 39.843 4.60252L37.58 7.23752C36.34 6.22486 35.038 5.71852 33.674 5.71852C32.1446 5.71852 30.9253 6.34886 30.016 7.60952C29.1273 8.84952 28.683 10.8025 28.683 13.4685C28.683 16.0725 29.1273 18.0049 30.016 19.2655C30.9253 20.5055 32.155 21.1255 33.705 21.1255C34.511 21.1255 35.2446 20.9809 35.906 20.6915C36.5673 20.3815 37.2596 19.9475 37.983 19.3895L40.091 22.0245C39.3263 22.8099 38.3756 23.4609 37.239 23.9775C36.123 24.4735 34.883 24.7215 33.519 24.7215C31.597 24.7215 29.9126 24.2875 28.466 23.4195C27.0193 22.5515 25.893 21.2805 25.087 19.6065C24.281 17.9119 23.878 15.8659 23.878 13.4685C23.878 11.1332 24.2913 9.12852 25.118 7.45452C25.9446 5.75986 27.0813 4.47852 28.528 3.61052C29.9746 2.72186 31.6073 2.27752 33.426 2.27752ZM54.8322 19.6685C54.8322 20.3092 54.9252 20.7845 55.1112 21.0945C55.2972 21.3839 55.6072 21.6009 56.0412 21.7455L55.1112 24.6595C54.1398 24.5769 53.3442 24.3495 52.7242 23.9775C52.1248 23.6055 51.6598 23.0269 51.3292 22.2415C50.2545 23.8949 48.6115 24.7215 46.4002 24.7215C44.7675 24.7215 43.4655 24.2565 42.4942 23.3265C41.5435 22.3759 41.0682 21.1462 41.0682 19.6375C41.0682 17.8395 41.7192 16.4652 43.0212 15.5145C44.3232 14.5639 46.1935 14.0885 48.6322 14.0885H50.5232V13.2825C50.5232 12.2699 50.2958 11.5672 49.8412 11.1745C49.3865 10.7819 48.6322 10.5855 47.5782 10.5855C46.4208 10.5855 44.9742 10.8749 43.2382 11.4535L42.2462 8.50852C44.2922 7.70252 46.3175 7.29952 48.3222 7.29952C50.5542 7.29952 52.1972 7.78519 53.2512 8.75652C54.3052 9.70719 54.8322 11.1332 54.8322 13.0345V19.6685ZM47.6092 21.5595C48.8492 21.5595 49.8205 20.9499 50.5232 19.7305V16.5995H49.0662C46.6895 16.5995 45.5012 17.4882 45.5012 19.2655C45.5012 19.9889 45.6768 20.5572 46.0282 20.9705C46.4002 21.3632 46.9272 21.5595 47.6092 21.5595ZM63.0196 24.7215C61.6762 24.7215 60.6326 24.3392 59.8886 23.5745C59.1446 22.7892 58.7726 21.6835 58.7726 20.2575V1.25452L63.1746 0.758524V20.1335C63.1746 20.8569 63.4742 21.2185 64.0736 21.2185C64.4042 21.2185 64.6936 21.1565 64.9416 21.0325L65.8406 24.1635C64.9932 24.5355 64.0529 24.7215 63.0196 24.7215ZM74.8621 7.29952C77.3214 7.29952 79.2434 8.07452 80.6281 9.62452C82.0127 11.1539 82.7051 13.2825 82.7051 16.0105C82.7051 17.7465 82.3847 19.2759 81.7441 20.5985C81.1241 21.9005 80.2147 22.9132 79.0161 23.6365C77.8381 24.3599 76.4431 24.7215 74.8311 24.7215C72.3717 24.7215 70.4394 23.9569 69.0341 22.4275C67.6494 20.8775 66.9571 18.7385 66.9571 16.0105C66.9571 14.2745 67.2671 12.7555 67.8871 11.4535C68.5277 10.1309 69.4371 9.10786 70.6151 8.38452C71.8137 7.66119 73.2294 7.29952 74.8621 7.29952ZM74.8621 10.5855C73.7461 10.5855 72.9091 11.0299 72.3511 11.9185C71.8137 12.7865 71.5451 14.1505 71.5451 16.0105C71.5451 17.8705 71.8137 19.2449 72.3511 20.1335C72.9091 21.0015 73.7357 21.4355 74.8311 21.4355C75.9264 21.4355 76.7427 21.0015 77.2801 20.1335C77.8381 19.2449 78.1171 17.8705 78.1171 16.0105C78.1171 14.1505 77.8484 12.7865 77.3111 11.9185C76.7737 11.0299 75.9574 10.5855 74.8621 10.5855ZM94.5466 7.33052C95.0426 7.33052 95.5902 7.41319 96.1896 7.57852L95.4456 11.8255C94.8669 11.6809 94.3812 11.6085 93.9886 11.6085C93.0172 11.6085 92.2629 11.9495 91.7256 12.6315C91.1882 13.3135 90.7646 14.3469 90.4546 15.7315V24.2255H86.0526V7.79552H89.8656L90.2686 10.9885C90.6612 9.83119 91.2296 8.93219 91.9736 8.29152C92.7382 7.65086 93.5959 7.33052 94.5466 7.33052ZM102.776 7.79552V24.2255H98.3739V7.79552H102.776ZM100.544 -0.667476C101.329 -0.667476 101.97 -0.419476 102.466 0.0765235C102.983 0.551857 103.241 1.16152 103.241 1.90552C103.241 2.64952 102.983 3.26952 102.466 3.76552C101.97 4.24086 101.329 4.47852 100.544 4.47852C99.7585 4.47852 99.1179 4.24086 98.6219 3.76552C98.1259 3.26952 97.8779 2.64952 97.8779 1.90552C97.8779 1.16152 98.1259 0.551857 98.6219 0.0765235C99.1179 -0.419476 99.7585 -0.667476 100.544 -0.667476ZM121.011 15.6385C121.011 15.8452 120.98 16.4135 120.918 17.3435H110.657C110.802 18.8315 111.205 19.8855 111.866 20.5055C112.527 21.1255 113.426 21.4355 114.563 21.4355C115.266 21.4355 115.927 21.3219 116.547 21.0945C117.167 20.8672 117.839 20.5055 118.562 20.0095L120.391 22.4895C118.552 23.9775 116.475 24.7215 114.16 24.7215C111.577 24.7215 109.593 23.9465 108.208 22.3965C106.823 20.8465 106.131 18.7489 106.131 16.1035C106.131 14.4295 106.42 12.9312 106.999 11.6085C107.598 10.2652 108.456 9.21119 109.572 8.44652C110.709 7.68186 112.052 7.29952 113.602 7.29952C115.937 7.29952 117.756 8.03319 119.058 9.50052C120.36 10.9679 121.011 13.0139 121.011 15.6385ZM116.64 14.3985C116.64 11.6705 115.658 10.3065 113.695 10.3065C112.786 10.3065 112.073 10.6475 111.556 11.3295C111.06 11.9909 110.76 13.0759 110.657 14.5845H116.64V14.3985ZM129.653 7.29952C131.968 7.29952 133.952 7.96086 135.605 9.28352L133.931 11.7945C132.546 10.9265 131.182 10.4925 129.839 10.4925C129.116 10.4925 128.558 10.6269 128.165 10.8955C127.772 11.1642 127.576 11.5259 127.576 11.9805C127.576 12.3112 127.659 12.5902 127.824 12.8175C128.01 13.0449 128.341 13.2619 128.816 13.4685C129.312 13.6752 130.046 13.9232 131.017 14.2125C132.753 14.6879 134.045 15.3285 134.892 16.1345C135.739 16.9199 136.163 18.0049 136.163 19.3895C136.163 20.4849 135.843 21.4355 135.202 22.2415C134.582 23.0475 133.735 23.6675 132.66 24.1015C131.585 24.5149 130.387 24.7215 129.064 24.7215C127.679 24.7215 126.419 24.5149 125.282 24.1015C124.145 23.6675 123.174 23.0785 122.368 22.3345L124.538 19.9165C125.923 20.9912 127.39 21.5285 128.94 21.5285C129.767 21.5285 130.418 21.3735 130.893 21.0635C131.389 20.7329 131.637 20.2885 131.637 19.7305C131.637 19.2965 131.544 18.9555 131.358 18.7075C131.172 18.4595 130.831 18.2322 130.335 18.0255C129.839 17.7982 129.064 17.5399 128.01 17.2505C126.357 16.7959 125.127 16.1552 124.321 15.3285C123.536 14.4812 123.143 13.4375 123.143 12.1975C123.143 11.2675 123.412 10.4305 123.949 9.68652C124.486 8.94252 125.241 8.36386 126.212 7.95052C127.204 7.51652 128.351 7.29952 129.653 7.29952Z" fill="white"/>
<path d="M66.6728 26.373C67.9728 26.373 69.1028 26.563 70.0628 26.943C71.0228 27.303 71.9628 27.863 72.8828 28.623L70.6928 31.173C69.4928 30.193 68.2328 29.703 66.9128 29.703C65.4328 29.703 64.2528 30.313 63.3728 31.533C62.5128 32.733 62.0828 34.623 62.0828 37.203C62.0828 39.723 62.5128 41.593 63.3728 42.813C64.2528 44.013 65.4428 44.613 66.9428 44.613C67.7228 44.613 68.4328 44.473 69.0728 44.193C69.7128 43.893 70.3828 43.473 71.0828 42.933L73.1228 45.483C72.3828 46.243 71.4628 46.873 70.3628 47.373C69.2828 47.853 68.0828 48.093 66.7628 48.093C64.9028 48.093 63.2728 47.673 61.8728 46.833C60.4728 45.993 59.3828 44.763 58.6028 43.143C57.8228 41.503 57.4328 39.523 57.4328 37.203C57.4328 34.943 57.8328 33.003 58.6328 31.383C59.4328 29.743 60.5328 28.503 61.9328 27.663C63.3328 26.803 64.9128 26.373 66.6728 26.373ZM81.6356 31.233C84.0156 31.233 85.8756 31.983 87.2156 33.483C88.5556 34.963 89.2256 37.023 89.2256 39.663C89.2256 41.343 88.9156 42.823 88.2956 44.103C87.6956 45.363 86.8156 46.343 85.6556 47.043C84.5156 47.743 83.1656 48.093 81.6056 48.093C79.2256 48.093 77.3556 47.353 75.9956 45.873C74.6556 44.373 73.9856 42.303 73.9856 39.663C73.9856 37.983 74.2856 36.513 74.8856 35.253C75.5056 33.973 76.3856 32.983 77.5256 32.283C78.6856 31.583 80.0556 31.233 81.6356 31.233ZM81.6356 34.413C80.5556 34.413 79.7456 34.843 79.2056 35.703C78.6856 36.543 78.4256 37.863 78.4256 39.663C78.4256 41.463 78.6856 42.793 79.2056 43.653C79.7456 44.493 80.5456 44.913 81.6056 44.913C82.6656 44.913 83.4556 44.493 83.9756 43.653C84.5156 42.793 84.7856 41.463 84.7856 39.663C84.7856 37.863 84.5256 36.543 84.0056 35.703C83.4856 34.843 82.6956 34.413 81.6356 34.413ZM105.485 47.613H101.795L101.585 45.483C101.025 46.363 100.345 47.023 99.5451 47.463C98.7451 47.883 97.8151 48.093 96.7551 48.093C95.3151 48.093 94.2151 47.663 93.4551 46.803C92.6951 45.923 92.3151 44.703 92.3151 43.143V31.713H96.5751V42.603C96.5751 43.443 96.7151 44.043 96.9951 44.403C97.2751 44.743 97.7151 44.913 98.3151 44.913C99.4551 44.913 100.425 44.223 101.225 42.843V31.713H105.485V47.613ZM118.572 31.233C119.972 31.233 121.062 31.663 121.842 32.523C122.622 33.363 123.012 34.533 123.012 36.033V47.613H118.752V36.753C118.752 35.893 118.602 35.293 118.302 34.953C118.022 34.593 117.592 34.413 117.012 34.413C116.412 34.413 115.862 34.603 115.362 34.983C114.882 35.343 114.412 35.893 113.952 36.633V47.613H109.692V31.713H113.382L113.712 33.723C114.372 32.903 115.092 32.283 115.872 31.863C116.672 31.443 117.572 31.233 118.572 31.233ZM136.575 46.863C135.995 47.263 135.335 47.563 134.595 47.763C133.875 47.983 133.155 48.093 132.435 48.093C130.795 48.073 129.555 47.603 128.715 46.683C127.875 45.763 127.455 44.413 127.455 42.633V34.713H125.085V31.713H127.455V28.233L131.715 27.723V31.713H135.375L134.955 34.713H131.715V42.543C131.715 43.303 131.845 43.853 132.105 44.193C132.365 44.533 132.765 44.703 133.305 44.703C133.845 44.703 134.445 44.523 135.105 44.163L136.575 46.863Z" fill="white"/>
<path d="M0.579993 8.55001C1.39999 7.68001 2.77999 7.63001 3.64999 8.44001C3.64999 8.44001 32.31 36.5 31.49 37.37C30.67 38.24 0.679993 11.62 0.679993 11.62C-0.190007 10.81 -0.240007 9.43001 0.579993 8.55001Z" fill="white"/>
<path d="M41.03 50.42L30.88 40.96C30.78 40.86 30.77 40.7 30.87 40.6L31.38 40.05C31.47 39.95 31.63 39.94 31.73 40.04L41.88 49.51L42.68 48.65L32.52 39.19C32.42 39.1 32.42 38.94 32.51 38.84L33.02 38.29C33.11 38.19 33.27 38.18 33.37 38.28L43.53 47.74L44.28 46.93L34.13 37.47C34.03 37.37 34.03 37.21 34.12 37.11L34.63 36.56C34.72 36.46 34.88 36.45 34.98 36.55L45.13 46.02L45.84 45.26L32.74 33.03C32.09 32.43 31.07 32.46 30.47 33.11L27.18 36.63C26.57 37.28 26.61 38.3 27.25 38.9L40.37 51.13L41.03 50.42Z" fill="white"/>
</g>
</g>
<defs>
<clipPath id="clip0_127_2">
<rect width="137" height="60" fill="white"/>
</clipPath>
<clipPath id="clip1_127_2">
<rect width="136.84" height="60.23" fill="white"/>
</clipPath>
</defs>
</svg>
