<?xml version="1.0" encoding="utf-8"?>
<!-- Generator: Adobe Illustrator 26.0.0, SVG Export Plug-In . SVG Version: 6.00 Build 0)  -->
<svg version="1.1" id="Layer_1" xmlns="http://www.w3.org/2000/svg" xmlns:xlink="http://www.w3.org/1999/xlink" x="0px" y="0px"
	 viewBox="0 0 254.79 141.07" style="enable-background:new 0 0 254.79 141.07;" xml:space="preserve">
<style type="text/css">
	.st0{fill:#535353;}
	.st1{fill:#1D1D25;}
	.st2{fill:#52526F;}
	.st3{fill:#FFFFFF;filter:url(#Adobe_OpacityMaskFilter);}
	.st4{mask:url(#mask0_0_489_00000004544573492722840950000004431089692805132718_);}
	.st5{fill:#2F2F47;}
	.st6{fill:#393A56;}
	.st7{fill:#EEEEEE;}
	.st8{fill:#20BD7D;}
	.st9{fill:#FFFFFF;}
	.st10{fill:#DFDFDF;}
</style>
<g>
	<path class="st0" d="M34.26,0h187.36c2.42,0,4.37,1.96,4.37,4.37v125.39c0,2.42-1.96,4.37-4.37,4.37H34.26
		c-2.42,0-4.37-1.96-4.37-4.37V4.37C29.89,1.96,31.85,0,34.26,0z"/>
	<path class="st1" d="M34.63,1.09h186.63c2.01,0,3.65,1.63,3.65,3.65V129.4c0,2.01-1.63,3.65-3.65,3.65H34.63
		c-2.01,0-3.65-1.63-3.65-3.65V4.74C30.98,2.73,32.62,1.09,34.63,1.09z"/>
	<path class="st2" d="M0,133.78c0-0.6,0.49-1.09,1.09-1.09h252.57c0.6,0,1.09,0.49,1.09,1.09v5.14H0V133.78z"/>
	<defs>
		<filter id="Adobe_OpacityMaskFilter" filterUnits="userSpaceOnUse" x="106.57" y="117.41" width="41.61" height="19.02">
			<feColorMatrix  type="matrix" values="1 0 0 0 0  0 1 0 0 0  0 0 1 0 0  0 0 0 1 0"/>
		</filter>
	</defs>
	
		<mask maskUnits="userSpaceOnUse" x="106.57" y="117.41" width="41.61" height="19.02" id="mask0_0_489_00000004544573492722840950000004431089692805132718_">
		<path class="st3" d="M0,133.78c0-0.6,0.49-1.09,1.09-1.09h252.57c0.6,0,1.09,0.49,1.09,1.09v5.14H0V133.78z"/>
	</mask>
	<g class="st4">
		<path class="st5" d="M110.22,117.41h34.32c2.01,0,3.65,1.63,3.65,3.65v11.73c0,2.01-1.63,3.65-3.65,3.65h-34.32
			c-2.01,0-3.65-1.63-3.65-3.65v-11.73C106.57,119.04,108.2,117.41,110.22,117.41z"/>
	</g>
	<path class="st6" d="M0,138.88h254.79l0,0c0,1.21-0.98,2.19-2.19,2.19H2.19C0.98,141.07,0,140.09,0,138.88L0,138.88z"/>
</g>
<path class="st7" d="M217.44,129.4H38.45c-4.12,0-7.46-3.5-7.46-7.81V10.4c0-4.31,3.34-7.81,7.46-7.81h178.99
	c4.12,0,7.46,3.5,7.46,7.81v111.19C224.9,125.9,221.56,129.4,217.44,129.4z"/>
<path class="st8" d="M224.9,40.88H30.98V9.45c0-4.31,3.34-7.81,7.46-7.81h178.99c4.12,0,7.46,3.5,7.46,7.81V40.88z"/>
<path class="st9" d="M98.64,18.87H53.86v97.61h44.79V18.87z"/>
<path class="st9" d="M204.69,18.87h-89.58v97.61h89.58V18.87z"/>
<path class="st10" d="M198.21,24.14h-76.6v17.84h76.6V24.14z"/>
<path class="st10" d="M157.66,47.82h-36.05v17.84h36.05V47.82z"/>
<path class="st10" d="M198.21,47.82h-36.05v17.84h36.05V47.82z"/>
<path class="st10" d="M144.93,70.59h-23.32v17.84h23.32V70.59z"/>
<path class="st10" d="M198.21,70.59h-48.79v17.84h48.79V70.59z"/>
<path class="st10" d="M174.88,111.21h23.32V93.37h-23.32V111.21z"/>
<path class="st10" d="M121.6,111.21h48.79V93.37H121.6V111.21z"/>
</svg>
