<?xml version="1.0" encoding="utf-8"?>
<!-- Generator: Adobe Illustrator 26.0.0, SVG Export Plug-In . SVG Version: 6.00 Build 0)  -->
<svg version="1.1" id="Layer_1" xmlns="http://www.w3.org/2000/svg" xmlns:xlink="http://www.w3.org/1999/xlink" x="0px" y="0px"
	 viewBox="0 0 136.84 60.23" style="enable-background:new 0 0 136.84 60.23;" xml:space="preserve">
<style type="text/css">
	.st0{clip-path:url(#SVGID_00000140725257518184496180000011472953102729535920_);}
	.st1{fill:#FFFFFF;}
</style>
<g>
	<defs>
		<rect id="SVGID_1_" width="136.84" height="60.23"/>
	</defs>
	<clipPath id="SVGID_00000004523358827861027410000015086298907054883226_">
		<use xlink:href="#SVGID_1_"  style="overflow:visible;"/>
	</clipPath>
	<g style="clip-path:url(#SVGID_00000004523358827861027410000015086298907054883226_);">
		<path class="st1" d="M33.43,2.28c1.34,0,2.51,0.2,3.5,0.59c0.99,0.37,1.96,0.95,2.91,1.74l-2.26,2.64
			c-1.24-1.01-2.54-1.52-3.91-1.52c-1.53,0-2.75,0.63-3.66,1.89c-0.89,1.24-1.33,3.19-1.33,5.86c0,2.6,0.44,4.54,1.33,5.8
			c0.91,1.24,2.14,1.86,3.69,1.86c0.81,0,1.54-0.14,2.2-0.43c0.66-0.31,1.35-0.74,2.08-1.3l2.11,2.64
			c-0.76,0.79-1.72,1.44-2.85,1.95c-1.12,0.5-2.36,0.74-3.72,0.74c-1.92,0-3.61-0.43-5.05-1.3c-1.45-0.87-2.57-2.14-3.38-3.81
			c-0.81-1.69-1.21-3.74-1.21-6.14c0-2.34,0.41-4.34,1.24-6.01c0.83-1.69,1.96-2.98,3.41-3.84C29.97,2.72,31.61,2.28,33.43,2.28z"/>
		<path class="st1" d="M54.83,19.67c0,0.64,0.09,1.12,0.28,1.43c0.19,0.29,0.5,0.51,0.93,0.65l-0.93,2.91
			c-0.97-0.08-1.77-0.31-2.39-0.68c-0.6-0.37-1.06-0.95-1.4-1.74c-1.07,1.65-2.72,2.48-4.93,2.48c-1.63,0-2.93-0.47-3.91-1.4
			c-0.95-0.95-1.43-2.18-1.43-3.69c0-1.8,0.65-3.17,1.95-4.12c1.3-0.95,3.17-1.43,5.61-1.43h1.89v-0.81c0-1.01-0.23-1.72-0.68-2.11
			c-0.45-0.39-1.21-0.59-2.26-0.59c-1.16,0-2.6,0.29-4.34,0.87l-0.99-2.95c2.05-0.81,4.07-1.21,6.08-1.21
			c2.23,0,3.88,0.49,4.93,1.46c1.05,0.95,1.58,2.38,1.58,4.28V19.67z M47.61,21.56c1.24,0,2.21-0.61,2.91-1.83V16.6h-1.46
			c-2.38,0-3.56,0.89-3.56,2.67c0,0.72,0.18,1.29,0.53,1.71C46.4,21.36,46.93,21.56,47.61,21.56z"/>
		<path class="st1" d="M63.02,24.72c-1.34,0-2.39-0.38-3.13-1.15c-0.74-0.79-1.12-1.89-1.12-3.32v-19l4.4-0.5v19.38
			c0,0.72,0.3,1.09,0.9,1.09c0.33,0,0.62-0.06,0.87-0.19l0.9,3.13C64.99,24.54,64.05,24.72,63.02,24.72z"/>
		<path class="st1" d="M74.86,7.3c2.46,0,4.38,0.77,5.77,2.32c1.38,1.53,2.08,3.66,2.08,6.39c0,1.74-0.32,3.27-0.96,4.59
			c-0.62,1.3-1.53,2.31-2.73,3.04c-1.18,0.72-2.57,1.09-4.18,1.09c-2.46,0-4.39-0.76-5.8-2.29c-1.38-1.55-2.08-3.69-2.08-6.42
			c0-1.74,0.31-3.26,0.93-4.56c0.64-1.32,1.55-2.35,2.73-3.07C71.81,7.66,73.23,7.3,74.86,7.3z M74.86,10.59
			c-1.12,0-1.95,0.44-2.51,1.33c-0.54,0.87-0.81,2.23-0.81,4.09s0.27,3.23,0.81,4.12c0.56,0.87,1.38,1.3,2.48,1.3
			s1.91-0.43,2.45-1.3c0.56-0.89,0.84-2.26,0.84-4.12s-0.27-3.22-0.81-4.09C76.77,11.03,75.96,10.59,74.86,10.59z"/>
		<path class="st1" d="M94.55,7.33c0.5,0,1.04,0.08,1.64,0.25l-0.74,4.25c-0.58-0.14-1.06-0.22-1.46-0.22
			c-0.97,0-1.73,0.34-2.26,1.02s-0.96,1.72-1.27,3.1v8.49h-4.4V7.8h3.81l0.4,3.19c0.39-1.16,0.96-2.06,1.71-2.7
			C92.74,7.65,93.6,7.33,94.55,7.33z"/>
		<path class="st1" d="M102.78,7.8v16.43h-4.4V7.8H102.78z M100.54-0.67c0.79,0,1.43,0.25,1.92,0.74c0.52,0.48,0.77,1.09,0.77,1.83
			s-0.26,1.36-0.77,1.86c-0.5,0.48-1.14,0.71-1.92,0.71c-0.79,0-1.43-0.24-1.92-0.71c-0.5-0.5-0.74-1.12-0.74-1.86
			s0.25-1.35,0.74-1.83C99.12-0.42,99.76-0.67,100.54-0.67z"/>
		<path class="st1" d="M121.01,15.64c0,0.21-0.03,0.77-0.09,1.7h-10.26c0.15,1.49,0.55,2.54,1.21,3.16c0.66,0.62,1.56,0.93,2.7,0.93
			c0.7,0,1.36-0.11,1.98-0.34c0.62-0.23,1.29-0.59,2.01-1.08l1.83,2.48c-1.84,1.49-3.92,2.23-6.23,2.23c-2.58,0-4.57-0.77-5.95-2.33
			c-1.39-1.55-2.08-3.65-2.08-6.29c0-1.67,0.29-3.17,0.87-4.5c0.6-1.34,1.46-2.4,2.57-3.16c1.14-0.76,2.48-1.15,4.03-1.15
			c2.33,0,4.15,0.73,5.46,2.2C120.36,10.97,121.01,13.01,121.01,15.64z M116.64,14.4c0-2.73-0.98-4.09-2.94-4.09
			c-0.91,0-1.62,0.34-2.14,1.02c-0.5,0.66-0.8,1.75-0.9,3.26h5.98V14.4z"/>
		<path class="st1" d="M129.65,7.3c2.32,0,4.3,0.66,5.95,1.98l-1.67,2.51c-1.38-0.87-2.75-1.3-4.09-1.3c-0.72,0-1.28,0.13-1.67,0.4
			c-0.39,0.27-0.59,0.63-0.59,1.09c0,0.33,0.08,0.61,0.25,0.84c0.19,0.23,0.52,0.44,0.99,0.65c0.5,0.21,1.23,0.45,2.2,0.74
			c1.74,0.48,3.03,1.12,3.88,1.92c0.85,0.79,1.27,1.87,1.27,3.25c0,1.1-0.32,2.05-0.96,2.85c-0.62,0.81-1.47,1.43-2.54,1.86
			c-1.07,0.41-2.27,0.62-3.6,0.62c-1.38,0-2.64-0.21-3.78-0.62c-1.14-0.43-2.11-1.02-2.91-1.77l2.17-2.42
			c1.38,1.07,2.85,1.61,4.4,1.61c0.83,0,1.48-0.15,1.95-0.47c0.5-0.33,0.74-0.77,0.74-1.33c0-0.43-0.09-0.77-0.28-1.02
			c-0.19-0.25-0.53-0.48-1.02-0.68c-0.5-0.23-1.27-0.49-2.33-0.77c-1.65-0.45-2.88-1.1-3.69-1.92c-0.78-0.85-1.18-1.89-1.18-3.13
			c0-0.93,0.27-1.77,0.81-2.51c0.54-0.74,1.29-1.32,2.26-1.74C127.2,7.52,128.35,7.3,129.65,7.3z"/>
		<path class="st1" d="M66.67,26.37c1.3,0,2.43,0.19,3.39,0.57c0.96,0.36,1.9,0.92,2.82,1.68l-2.19,2.55
			c-1.2-0.98-2.46-1.47-3.78-1.47c-1.48,0-2.66,0.61-3.54,1.83c-0.86,1.2-1.29,3.09-1.29,5.67c0,2.52,0.43,4.39,1.29,5.61
			c0.88,1.2,2.07,1.8,3.57,1.8c0.78,0,1.49-0.14,2.13-0.42c0.64-0.3,1.31-0.72,2.01-1.26l2.04,2.55c-0.74,0.76-1.66,1.39-2.76,1.89
			c-1.08,0.48-2.28,0.72-3.6,0.72c-1.86,0-3.49-0.42-4.89-1.26c-1.4-0.84-2.49-2.07-3.27-3.69c-0.78-1.64-1.17-3.62-1.17-5.94
			c0-2.26,0.4-4.2,1.2-5.82c0.8-1.64,1.9-2.88,3.3-3.72C63.33,26.8,64.91,26.37,66.67,26.37z"/>
		<path class="st1" d="M81.64,31.23c2.38,0,4.24,0.75,5.58,2.25c1.34,1.48,2.01,3.54,2.01,6.18c0,1.68-0.31,3.16-0.93,4.44
			c-0.6,1.26-1.48,2.24-2.64,2.94c-1.14,0.7-2.49,1.05-4.05,1.05c-2.38,0-4.25-0.74-5.61-2.22c-1.34-1.5-2.01-3.57-2.01-6.21
			c0-1.68,0.3-3.15,0.9-4.41c0.62-1.28,1.5-2.27,2.64-2.97C78.69,31.58,80.06,31.23,81.64,31.23z M81.64,34.41
			c-1.08,0-1.89,0.43-2.43,1.29c-0.52,0.84-0.78,2.16-0.78,3.96c0,1.8,0.26,3.13,0.78,3.99c0.54,0.84,1.34,1.26,2.4,1.26
			s1.85-0.42,2.37-1.26c0.54-0.86,0.81-2.19,0.81-3.99c0-1.8-0.26-3.12-0.78-3.96C83.49,34.84,82.7,34.41,81.64,34.41z"/>
		<path class="st1" d="M105.49,47.61h-3.69l-0.21-2.13c-0.56,0.88-1.24,1.54-2.04,1.98c-0.8,0.42-1.73,0.63-2.79,0.63
			c-1.44,0-2.54-0.43-3.3-1.29c-0.76-0.88-1.14-2.1-1.14-3.66V31.71h4.26V42.6c0,0.84,0.14,1.44,0.42,1.8
			c0.28,0.34,0.72,0.51,1.32,0.51c1.14,0,2.11-0.69,2.91-2.07V31.71h4.26V47.61z"/>
		<path class="st1" d="M118.57,31.23c1.4,0,2.49,0.43,3.27,1.29c0.78,0.84,1.17,2.01,1.17,3.51v11.58h-4.26V36.75
			c0-0.86-0.15-1.46-0.45-1.8c-0.28-0.36-0.71-0.54-1.29-0.54c-0.6,0-1.15,0.19-1.65,0.57c-0.48,0.36-0.95,0.91-1.41,1.65v10.98
			h-4.26v-15.9h3.69l0.33,2.01c0.66-0.82,1.38-1.44,2.16-1.86C116.67,31.44,117.57,31.23,118.57,31.23z"/>
		<path class="st1" d="M136.57,46.86c-0.58,0.4-1.24,0.7-1.98,0.9c-0.72,0.22-1.44,0.33-2.16,0.33c-1.64-0.02-2.88-0.49-3.72-1.41
			c-0.84-0.92-1.26-2.27-1.26-4.05v-7.92h-2.37v-3h2.37v-3.48l4.26-0.51v3.99h3.66l-0.42,3h-3.24v7.83c0,0.76,0.13,1.31,0.39,1.65
			c0.26,0.34,0.66,0.51,1.2,0.51c0.54,0,1.14-0.18,1.8-0.54L136.57,46.86z"/>
		<path class="st1" d="M0.58,8.55c0.82-0.87,2.2-0.92,3.07-0.11c0,0,28.66,28.06,27.84,28.93C30.67,38.24,0.68,11.62,0.68,11.62
			C-0.19,10.81-0.24,9.43,0.58,8.55z"/>
		<path class="st1" d="M41.03,50.42l-10.15-9.46c-0.1-0.1-0.11-0.26-0.01-0.36l0.51-0.55c0.09-0.1,0.25-0.11,0.35-0.01l10.15,9.47
			l0.8-0.86l-10.16-9.46c-0.1-0.09-0.1-0.25-0.01-0.35l0.51-0.55c0.09-0.1,0.25-0.11,0.35-0.01l10.16,9.46l0.75-0.81l-10.15-9.46
			c-0.1-0.1-0.1-0.26-0.01-0.36l0.51-0.55c0.09-0.1,0.25-0.11,0.35-0.01l10.15,9.47l0.71-0.76l-13.1-12.23
			c-0.65-0.6-1.67-0.57-2.27,0.08l-3.29,3.52c-0.61,0.65-0.57,1.67,0.07,2.27l13.12,12.23L41.03,50.42z"/>
	</g>
</g>
</svg>
