<?xml version="1.0" encoding="utf-8"?>
<!-- Generator: Adobe Illustrator 26.0.0, SVG Export Plug-In . SVG Version: 6.00 Build 0)  -->
<svg version="1.1" id="Layer_1" xmlns="http://www.w3.org/2000/svg" xmlns:xlink="http://www.w3.org/1999/xlink" x="0px" y="0px"
	 viewBox="0 0 213.55 231.8" style="enable-background:new 0 0 213.55 231.8;" xml:space="preserve">
<style type="text/css">
	.st0{fill:#20BD7D;}
	.st1{fill:#FFFFFF;}
	.st2{fill:#2B2B2B;}
	.st3{clip-path:url(#SVGID_00000048460718895996775650000007342432251559363206_);}
	.st4{fill-rule:evenodd;clip-rule:evenodd;fill:#1D1D25;}
	.st5{fill-rule:evenodd;clip-rule:evenodd;}
	
		.st6{fill:url(#SVGID_00000142876967774912423710000010154541869264024468_);stroke:#000000;stroke-width:0.25;stroke-miterlimit:10;}
	.st7{fill:none;stroke:#000000;stroke-width:0.25;stroke-miterlimit:10;}
	.st8{fill:#EFEFEF;}
	.st9{clip-path:url(#SVGID_00000065068915990416006580000013875079949349012407_);}
</style>
<g>
	<path d="M85.24,4.5H11.38c-3.31,0-6.01,3.4-6.01,7.57v165.24c0,4.17,2.7,7.57,6.01,7.57h73.86c3.31,0,6.01-3.4,6.01-7.57V12.08
		C91.21,7.9,88.55,4.5,85.24,4.5z"/>
	<path class="st0" d="M89.01,47.63H5.53V10.17c0-3.22,2.59-5.85,5.81-5.85h71.83c3.22,0,5.85,2.63,5.85,5.85V47.63z"/>
	<path class="st1" d="M70.56,14.57H24.25v46.34h46.31V14.57z"/>
	<path class="st1" d="M76.01,69.95h-58.1v99.52h58.1V69.95z"/>
	<path class="st2" d="M52.66,35.77c-1.3-0.83-1.7-2.53-0.87-3.83l3.27-5.25c0.83-1.3,2.52-1.7,3.83-0.87
		c1.3,0.83,1.7,2.53,0.87,3.83l-3.27,5.25C55.66,36.2,53.96,36.59,52.66,35.77z"/>
	<path class="st2" d="M42.09,52.66c-0.71-0.43-1.03-1.26-0.67-1.86c0,0,12.03-17.96,12.78-17.49c0.71,0.43-10.14,19.14-10.14,19.14
		C43.71,53.06,42.84,53.13,42.09,52.66z"/>
	<path class="st1" d="M53.21,31.62c-0.2-0.12-0.28-0.36-0.12-0.59l3.75-6c0.12-0.2,0.35-0.28,0.59-0.12
		c0.2,0.12,0.28,0.36,0.12,0.59l-3.75,6C53.69,31.7,53.41,31.74,53.21,31.62z"/>
	<path class="st1" d="M54.67,32.53c-0.2-0.12-0.28-0.36-0.12-0.59l3.75-6c0.12-0.2,0.35-0.28,0.59-0.12
		c0.2,0.12,0.28,0.36,0.12,0.59l-3.75,6C55.11,32.61,54.87,32.65,54.67,32.53z"/>
	<path class="st1" d="M56.09,33.4c-0.2-0.12-0.28-0.36-0.12-0.59l3.75-6c0.12-0.2,0.35-0.28,0.59-0.12c0.2,0.12,0.28,0.36,0.12,0.59
		l-3.79,6C56.53,33.48,56.29,33.56,56.09,33.4z"/>
	<path class="st1" d="M56.15,24.12l-0.69,1.1l5.38,3.37l0.69-1.1L56.15,24.12z"/>
	<path class="st2" d="M33.26,47.53c-0.71-0.43-1.03-1.26-0.71-1.78c0,0,11.4-16.93,12.11-16.46c0.71,0.43-9.47,18.12-9.47,18.12
		C34.83,47.88,33.97,47.96,33.26,47.53z"/>
	<g>
		<defs>
			<rect id="SVGID_1_" width="94.81" height="188.76"/>
		</defs>
		<clipPath id="SVGID_00000095338681320381126850000003178581314652454564_">
			<use xlink:href="#SVGID_1_"  style="overflow:visible;"/>
		</clipPath>
		<g style="clip-path:url(#SVGID_00000095338681320381126850000003178581314652454564_);">
			<g>
				<path class="st4" d="M88.51,173.99c0,4.58-3.38,8.53-7.96,8.53H15.21c-4.58,0-8.57-3.95-8.57-8.53V13.01
					c0-4.58,3.98-7.93,8.57-7.93h7.55c1.6,0,2.19-0.18,2.28,1.84c0.05,1.05,0.44,1.87,1.05,2.55c0.62,0.66,1.47,1.21,2.44,1.52
					c0.66,0.21,1.4,0.4,2.1,0.4h1.43h31.67h1.43c0.7,0,1.44-0.23,2.1-0.44c0.98-0.31,1.83-0.82,2.44-1.47c0.62-0.66,1-1.45,1.05-2.5
					c0.1-2.02,0.69-1.89,2.28-1.89h7.48c4.58,0,7.96,3.35,7.96,7.93V173.99z M42.79,5.87h10.23c0.43,0,0.79,0.27,0.79,0.66
					c0,0.39-0.35,0.66-0.79,0.66H42.79c-0.44,0-0.79-0.27-0.79-0.66C42.01,6.14,42.36,5.87,42.79,5.87z M58.41,6.09
					c0,0.63-0.51,1.15-1.15,1.15c-0.63,0-1.15-0.51-1.15-1.15c0-0.63,0.51-1.15,1.15-1.15C57.89,4.94,58.41,5.46,58.41,6.09z
					 M93.49,42.88V13.53c0-7.42-6.01-13.44-13.43-13.44H14.78c-7.65,0-13.92,6.26-13.92,13.92v10.75c-0.43,0-0.79,0.35-0.79,0.79
					v5.51c0,0.44,0.35,0.79,0.79,0.79v6.56c-0.43,0-0.79,0.35-0.79,0.79v11.81c0,0.43,0.35,0.79,0.79,0.79v3.94
					c-0.43,0-0.79,0.35-0.79,0.79v11.81c0,0.43,0.35,0.79,0.79,0.79v105.47c0,7.68,6.28,13.96,13.96,13.96h65.23
					c7.39,0,13.43-6.05,13.43-13.44V64.66h0.26c0.44,0,0.79-0.35,0.79-0.79V43.67c0-0.44-0.35-0.79-0.79-0.79H93.49z"/>
			</g>
			<path class="st5" d="M53.03,5.87H42.79c-0.44,0-0.79,0.27-0.79,0.66s0.35,0.66,0.79,0.66h10.23c0.44,0,0.79-0.27,0.79-0.66
				S53.46,5.87,53.03,5.87z"/>
			<path class="st5" d="M57.26,4.94c-0.63,0-1.15,0.51-1.15,1.15s0.51,1.15,1.15,1.15c0.63,0,1.15-0.51,1.15-1.15
				S57.89,4.94,57.26,4.94z"/>
		</g>
	</g>
	<path class="st2" d="M49.41,27.75c1.65-2.64,1.76-5.55,0.25-6.5c-1.51-0.95-4.08,0.43-5.73,3.07c-1.65,2.64-1.76,5.55-0.25,6.5
		C45.19,31.77,47.76,30.4,49.41,27.75z"/>
	
		<linearGradient id="SVGID_00000120517553505379004650000015726845137144543389_" gradientUnits="userSpaceOnUse" x1="179.2887" y1="-97.9672" x2="216.5063" y2="-116.9162" gradientTransform="matrix(1 0 0 -1 -147.5 -20.1621)">
		<stop  offset="5.328360e-03" style="stop-color:#20BD7D"/>
		<stop  offset="0.0409" style="stop-color:#2EC185"/>
		<stop  offset="0.6473" style="stop-color:#3DC58E"/>
		<stop  offset="0.6477" style="stop-color:#FFFFFF"/>
	</linearGradient>
	
		<path style="fill:url(#SVGID_00000120517553505379004650000015726845137144543389_);stroke:#000000;stroke-width:0.25;stroke-miterlimit:10;" d="
		M67.29,87.86H26c-1.38,0-2.48-1.14-2.48-2.49c0-1.38,1.14-2.49,2.48-2.49h41.3c1.38,0,2.48,1.14,2.48,2.49S68.68,87.86,67.29,87.86
		z"/>
	<path class="st7" d="M26.91,102.2c0,0,2.33-3.95,4.58,0c2.21,3.95,4.81,0,4.81,0s1.97-3.83,3.79,0"/>
	<path class="st7" d="M53.21,102.2c0,0-2.33,3.95-4.58,0c-2.21-3.95-4.81,0-4.81,0s-1.97,3.83-3.79,0"/>
	<path class="st7" d="M53.21,102.2c0,0,2.33-3.95,4.58,0c2.21,3.95,4.81,0,4.81,0s1.97-3.83,3.79,0"/>
	<path class="st7" d="M26.91,110.8c0,0,2.33-3.95,4.58,0c2.21,3.95,4.81,0,4.81,0s1.97-3.83,3.79,0"/>
	<path class="st7" d="M53.21,110.8c0,0-2.33,3.95-4.58,0c-2.21-3.95-4.81,0-4.81,0s-1.97,3.83-3.79,0"/>
	<path class="st7" d="M53.21,110.8c0,0,2.33-3.95,4.58,0c2.21,3.95,4.81,0,4.81,0s1.97-3.83,3.79,0"/>
	<path class="st7" d="M26.91,126.83c0,0,2.33-3.95,4.58,0c2.21,3.95,4.81,0,4.81,0s1.97-3.83,3.79,0"/>
	<path class="st7" d="M53.21,126.83c0,0-2.33,3.95-4.58,0c-2.21-3.95-4.81,0-4.81,0s-1.97,3.83-3.79,0"/>
	<path class="st7" d="M53.21,126.83c0,0,2.33-3.95,4.58,0c2.21,3.95,4.81,0,4.81,0s1.97-3.83,3.79,0"/>
	<path class="st7" d="M26.91,119.45c0,0,2.33-3.95,4.58,0c2.21,3.95,4.81,0,4.81,0s1.97-3.83,3.79,0"/>
	<path class="st7" d="M53.21,119.45c0,0-2.33,3.95-4.58,0c-2.21-3.95-4.81,0-4.81,0s-1.97,3.83-3.79,0"/>
	<path class="st7" d="M53.21,119.45c0,0,2.33-3.95,4.58,0c2.21,3.95,4.81,0,4.81,0s1.97-3.83,3.79,0"/>
	<path class="st7" d="M27.66,134.21c0,0,2.33-3.95,4.58,0c2.21,3.95,4.81,0,4.81,0s1.97-3.83,3.79,0"/>
	<path class="st7" d="M53.97,134.21c0,0-2.33,3.95-4.58,0c-2.21-3.95-4.81,0-4.81,0s-1.97,3.83-3.79,0"/>
	<path class="st7" d="M53.97,134.21c0,0,2.33-3.95,4.58,0c2.21,3.95,4.81,0,4.81,0s1.97-3.83,3.79,0"/>
	<path class="st7" d="M27.66,142.82c0,0,2.33-3.95,4.58,0c2.21,3.95,4.81,0,4.81,0s1.97-3.83,3.79,0"/>
	<path class="st7" d="M53.97,142.82c0,0-2.33,3.95-4.58,0c-2.21-3.95-4.81,0-4.81,0s-1.97,3.83-3.79,0"/>
	<path class="st7" d="M53.97,142.82c0,0,2.33-3.95,4.58,0c2.21,3.95,4.81,0,4.81,0s1.97-3.83,3.79,0"/>
	<path class="st7" d="M27.66,158.84c0,0,2.33-3.95,4.58,0c2.21,3.95,4.81,0,4.81,0s1.97-3.83,3.79,0"/>
	<path class="st7" d="M53.97,158.84c0,0-2.33,3.95-4.58,0c-2.21-3.95-4.81,0-4.81,0s-1.97,3.83-3.79,0"/>
	<path class="st7" d="M53.97,158.84c0,0,2.33-3.95,4.58,0c2.21,3.95,4.81,0,4.81,0s1.97-3.83,3.79,0"/>
	<path class="st7" d="M27.66,151.46c0,0,2.33-3.95,4.58,0c2.21,3.95,4.81,0,4.81,0s1.97-3.83,3.79,0"/>
	<path class="st7" d="M53.97,151.46c0,0-2.33,3.95-4.58,0c-2.21-3.95-4.81,0-4.81,0s-1.97,3.83-3.79,0"/>
	<path class="st7" d="M53.97,151.46c0,0,2.33-3.95,4.58,0c2.21,3.95,4.81,0,4.81,0s1.97-3.83,3.79,0"/>
</g>
<path d="M201.51,47.32h-70.5c-3.16,0-5.74,3.4-5.74,7.58v165.44c0,4.18,2.58,7.58,5.74,7.58h70.5c3.16,0,5.74-3.4,5.74-7.58V54.85
	C207.21,50.68,204.67,47.32,201.51,47.32z"/>
<path class="st0" d="M207.21,89.63h-81.94V52.87c0-3.16,2.58-5.74,5.74-5.74h70.5c3.16,0,5.74,2.58,5.74,5.74v36.76H207.21z"/>
<path class="st1" d="M197.29,70.85h-60.67v133.9h60.67V70.85z"/>
<path class="st8" d="M192.8,75.69h-50.16v25.94h50.16V75.69z"/>
<path class="st8" d="M165.2,107.38h-22.56v25.94h22.56V107.38z"/>
<path class="st8" d="M192.76,107.38H170.2v25.94h22.56V107.38z"/>
<path class="st8" d="M165.2,139.06h-22.56V165h22.56V139.06z"/>
<path class="st8" d="M192.76,139.06H170.2V165h22.56V139.06z"/>
<path class="st8" d="M165.22,170.75h-22.56v25.94h22.56V170.75z"/>
<path class="st8" d="M192.78,170.75h-22.56v25.94h22.56V170.75z"/>
<g>
	<defs>
		<rect id="SVGID_00000176035124143574360330000017398694650909070483_" x="118.74" y="43.04" width="94.81" height="188.76"/>
	</defs>
	<clipPath id="SVGID_00000020387955861566966540000007609930685747227050_">
		<use xlink:href="#SVGID_00000176035124143574360330000017398694650909070483_"  style="overflow:visible;"/>
	</clipPath>
	<g style="clip-path:url(#SVGID_00000020387955861566966540000007609930685747227050_);">
		<g>
			<path class="st4" d="M207.25,217.03c0,4.58-3.38,8.53-7.96,8.53h-65.34c-4.58,0-8.57-3.95-8.57-8.53V56.05
				c0-4.58,3.98-7.93,8.57-7.93h7.55c1.6,0,2.19-0.18,2.28,1.84c0.05,1.05,0.44,1.87,1.05,2.55c0.62,0.66,1.47,1.21,2.44,1.52
				c0.66,0.21,1.4,0.4,2.1,0.4h1.43h31.67h1.43c0.7,0,1.44-0.23,2.1-0.44c0.98-0.31,1.83-0.82,2.44-1.47c0.62-0.66,1-1.45,1.05-2.5
				c0.1-2.02,0.69-1.89,2.28-1.89h7.48c4.58,0,7.96,3.35,7.96,7.93V217.03z M161.54,48.91h10.23c0.43,0,0.79,0.27,0.79,0.66
				c0,0.39-0.35,0.66-0.79,0.66h-10.23c-0.44,0-0.79-0.27-0.79-0.66C160.75,49.18,161.1,48.91,161.54,48.91L161.54,48.91z
				 M177.15,49.13c0,0.63-0.51,1.15-1.15,1.15c-0.63,0-1.15-0.51-1.15-1.15c0-0.63,0.51-1.15,1.15-1.15
				C176.64,47.99,177.15,48.5,177.15,49.13L177.15,49.13z M212.24,85.92V56.57c0-7.42-6.01-13.44-13.43-13.44h-65.28
				c-7.65,0-13.92,6.26-13.92,13.92v10.75c-0.43,0-0.79,0.35-0.79,0.79v5.51c0,0.43,0.35,0.79,0.79,0.79v6.56
				c-0.43,0-0.79,0.35-0.79,0.79v11.81c0,0.43,0.35,0.79,0.79,0.79v3.94c-0.43,0-0.79,0.35-0.79,0.79v11.81
				c0,0.43,0.35,0.79,0.79,0.79v105.47c0,7.68,6.28,13.96,13.96,13.96h65.23c7.39,0,13.43-6.05,13.43-13.44V107.71h0.26
				c0.44,0,0.79-0.35,0.79-0.79V86.71c0-0.44-0.35-0.79-0.79-0.79H212.24z"/>
		</g>
		<path class="st5" d="M171.77,48.91h-10.23c-0.44,0-0.79,0.27-0.79,0.66c0,0.39,0.35,0.66,0.79,0.66h10.23
			c0.44,0,0.79-0.27,0.79-0.66C172.56,49.18,172.21,48.91,171.77,48.91"/>
		<path class="st5" d="M176,47.99c-0.63,0-1.15,0.51-1.15,1.15c0,0.63,0.51,1.15,1.15,1.15c0.63,0,1.15-0.51,1.15-1.15
			C177.15,48.5,176.64,47.99,176,47.99"/>
	</g>
</g>
</svg>
