<?xml version="1.0" encoding="utf-8"?>
<!-- Generator: Adobe Illustrator 26.0.0, SVG Export Plug-In . SVG Version: 6.00 Build 0)  -->
<svg version="1.1" id="Layer_1" xmlns="http://www.w3.org/2000/svg" xmlns:xlink="http://www.w3.org/1999/xlink" x="0px" y="0px"
	 viewBox="0 0 216.4 136.33" style="enable-background:new 0 0 216.4 136.33;" xml:space="preserve">
<style type="text/css">
	.st0{fill:#2B2B2B;}
	.st1{fill:#20BD7D;}
	.st2{fill:#FFFFFF;}
	.st3{fill:url(#SVGID_1_);stroke:#000000;stroke-width:0.25;stroke-miterlimit:10;}
	.st4{fill:none;stroke:#000000;stroke-miterlimit:10;}
</style>
<path class="st0" d="M208.07,136.33H8.33c-4.6,0-8.33-3.73-8.33-8.33V9.35c0-4.6,3.73-8.33,8.33-8.33h199.74
	c4.6,0,8.33,3.73,8.33,8.33v118.64C216.4,132.59,212.67,136.33,208.07,136.33z"/>
<path class="st1" d="M216.4,41.87H0V8.33C0,3.73,3.73,0,8.33,0h199.74c4.6,0,8.33,3.73,8.33,8.33V41.87z"/>
<path class="st2" d="M71.29,18.05H21.31v50h49.98V18.05z"/>
<path class="st2" d="M193.85,18.82H93.88v100.01h99.96V18.82z"/>
<path class="st0" d="M56.13,40.6c-1.67-1.05-2.18-3.27-1.13-4.93l4.25-6.8c1.05-1.67,3.27-2.18,4.93-1.13
	c1.67,1.05,2.18,3.27,1.13,4.93l-4.25,6.8C60.01,41.14,57.8,41.65,56.13,40.6z"/>
<path class="st0" d="M42.47,62.47c-0.93-0.58-1.33-1.65-0.87-2.38c0,0,15.58-23.22,16.51-22.63c0.92,0.58-13.13,24.75-13.13,24.75
	C44.53,62.94,43.4,63.05,42.47,62.47z"/>
<path class="st2" d="M56.85,35.25c-0.25-0.15-0.33-0.48-0.17-0.75l4.87-7.78c0.15-0.25,0.48-0.33,0.75-0.17
	c0.25,0.15,0.33,0.48,0.17,0.75l-4.86,7.78C57.45,35.34,57.11,35.4,56.85,35.25z"/>
<path class="st2" d="M58.73,36.42c-0.25-0.15-0.33-0.48-0.17-0.75l4.86-7.78c0.15-0.25,0.48-0.33,0.75-0.17
	c0.25,0.15,0.33,0.48,0.17,0.75l-4.86,7.78C59.31,36.5,58.98,36.59,58.73,36.42z"/>
<path class="st2" d="M60.54,37.55c-0.25-0.15-0.33-0.48-0.17-0.75l4.86-7.78c0.15-0.25,0.48-0.33,0.75-0.17
	c0.25,0.15,0.33,0.48,0.17,0.75l-4.86,7.78C61.13,37.64,60.79,37.72,60.54,37.55z"/>
<path class="st2" d="M60.64,25.51l-0.89,1.43l6.95,4.35l0.89-1.43L60.64,25.51z"/>
<path class="st0" d="M31.01,55.79c-0.93-0.58-1.35-1.62-0.92-2.32c0,0,14.73-21.88,15.66-21.28c0.93,0.58-12.26,23.42-12.26,23.42
	C33.05,56.29,31.94,56.37,31.01,55.79z"/>
<path class="st0" d="M51.9,30.24c2.14-3.43,2.28-7.2,0.32-8.43c-1.97-1.23-5.3,0.55-7.44,3.98c-2.14,3.43-2.28,7.2-0.32,8.43
	C46.43,35.45,49.76,33.67,51.9,30.24z"/>
<linearGradient id="SVGID_1_" gradientUnits="userSpaceOnUse" x1="265.1368" y1="-43.672" x2="332.4514" y2="-77.9555" gradientTransform="matrix(1 0 0 -1 -147.5 -21.9158)">
	<stop  offset="5.328360e-03" style="stop-color:#20BD7D"/>
	<stop  offset="0.0409" style="stop-color:#2EC185"/>
	<stop  offset="0.6473" style="stop-color:#3DC58E"/>
	<stop  offset="0.6477" style="stop-color:#FFFFFF"/>
</linearGradient>
<path class="st3" d="M181.8,39.95h-74.64c-2.48,0-4.51-2.03-4.51-4.52v-0.02c0-2.48,2.03-4.52,4.51-4.52h74.64
	c2.48,0,4.51,2.03,4.51,4.52v0.02C186.31,37.92,184.28,39.95,181.8,39.95z"/>
<path class="st4" d="M101.08,64.45c0,0,5.13-5.32,10.03,0c4.9,5.32,10.61,0,10.61,0s4.35-5.17,8.3,0"/>
<path class="st4" d="M158.96,64.45c0,0-5.13,5.32-10.03,0c-4.9-5.32-10.61,0-10.61,0s-4.35,5.17-8.3,0"/>
<path class="st4" d="M158.96,64.45c0,0,5.13-5.32,10.03,0c4.9,5.32,10.61,0,10.61,0s4.35-5.17,8.3,0"/>
<path class="st4" d="M101.08,76.12c0,0,5.13-5.32,10.03,0c4.9,5.32,10.61,0,10.61,0s4.35-5.17,8.3,0"/>
<path class="st4" d="M158.96,76.12c0,0-5.13,5.32-10.03,0c-4.9-5.32-10.61,0-10.61,0s-4.35,5.17-8.3,0"/>
<path class="st4" d="M158.96,76.12c0,0,5.13-5.32,10.03,0c4.9,5.32,10.61,0,10.61,0s4.35-5.17,8.3,0"/>
<path class="st4" d="M101.08,97.79c0,0,5.13-5.32,10.03,0c4.9,5.32,10.61,0,10.61,0s4.35-5.17,8.3,0"/>
<path class="st4" d="M158.96,97.79c0,0-5.13,5.32-10.03,0c-4.9-5.32-10.61,0-10.61,0s-4.35,5.17-8.3,0"/>
<path class="st4" d="M158.96,97.79c0,0,5.13-5.32,10.03,0c4.9,5.32,10.61,0,10.61,0s4.35-5.17,8.3,0"/>
<path class="st4" d="M101.08,87.79c0,0,5.13-5.32,10.03,0c4.9,5.32,10.61,0,10.61,0s4.35-5.17,8.3,0"/>
<path class="st4" d="M158.96,87.79c0,0-5.13,5.32-10.03,0c-4.9-5.32-10.61,0-10.61,0s-4.35,5.17-8.3,0"/>
<path class="st4" d="M158.96,87.79c0,0,5.13-5.32,10.03,0c4.9,5.32,10.61,0,10.61,0s4.35-5.17,8.3,0"/>
</svg>
